HIERARCHY
ROOT Hips
{
	OFFSET 0.000000 0.000000 0.000000
	CHANNELS 6 Xposition Yposition Zposition Zrotation Yrotation Xrotation 
	JOINT LHipJoint
	{
		OFFSET 0.000000 0.000000 0.000000
		CHANNELS 3 Zrotation Yrotation Xrotation
		JOINT LeftUpLeg
		{
			OFFSET 1.363060 -1.794630 0.839290
			CHANNELS 3 Zrotation Yrotation Xrotation
			JOINT LeftLeg
			{
				OFFSET 2.448110 -6.726130 0.000000
				CHANNELS 3 Zrotation Yrotation Xrotation
				JOINT LeftFoot
				{
					OFFSET 2.562200 -7.039590 0.000000
					CHANNELS 3 Zrotation Yrotation Xrotation
					JOINT LeftToeBase
					{
						OFFSET 0.157640 -0.433110 2.322550
						CHANNELS 3 Zrotation Yrotation Xrotation
						End Site
						{
							OFFSET 0.000000 0.000000 0.000000
						}
					}
				}
			}
		}
	}
	JOINT RHipJoint
	{
		OFFSET 0.000000 0.000000 0.000000
		CHANNELS 3 Zrotation Yrotation Xrotation
		JOINT RightUpLeg
		{
			OFFSET -1.305520 -1.794630 0.839290
			CHANNELS 3 Zrotation Yrotation Xrotation
			JOINT RightLeg
			{
				OFFSET -2.542530 -6.985550 0.000000
				CHANNELS 3 Zrotation Yrotation Xrotation
				JOINT RightFoot
				{
					OFFSET -2.568260 -7.056230 0.000000
					CHANNELS 3 Zrotation Yrotation Xrotation
					JOINT RightToeBase
					{
						OFFSET -0.164730 -0.452590 2.363150
						CHANNELS 3 Zrotation Yrotation Xrotation
						End Site
						{
							OFFSET 0.000000 0.000000 0.000000
						}
					}
				}
			}
		}
	}
	JOINT LowerBack
	{
		OFFSET 0.000000 0.000000 0.000000
		CHANNELS 3 Zrotation Yrotation Xrotation
		JOINT Spine
		{
			OFFSET 0.028270 2.035590 -0.193380
			CHANNELS 3 Zrotation Yrotation Xrotation
			JOINT Spine1
			{
				OFFSET 0.056720 2.048850 -0.042750
				CHANNELS 3 Zrotation Yrotation Xrotation
				JOINT Neck
				{
					OFFSET 0.000000 0.000000 0.000000
					CHANNELS 3 Zrotation Yrotation Xrotation
					JOINT Neck1
					{
						OFFSET -0.054170 1.746240 0.172020
						CHANNELS 3 Zrotation Yrotation Xrotation
						JOINT Head
						{
							OFFSET 0.104070 1.761360 -0.123970
							CHANNELS 3 Zrotation Yrotation Xrotation
							End Site
							{
								OFFSET 0.000000 0.000000 0.000000
							}
						}
					}
				}
				JOINT LeftShoulder
				{
					OFFSET 0.000000 0.000000 0.000000
					CHANNELS 3 Zrotation Yrotation Xrotation
					JOINT LeftArm
					{
						OFFSET 3.362410 1.200890 -0.311210
						CHANNELS 3 Zrotation Yrotation Xrotation
						JOINT LeftForeArm
						{
							OFFSET 4.983000 -0.000000 -0.000000
							CHANNELS 3 Zrotation Yrotation Xrotation
							JOINT LeftHand
							{
								OFFSET 3.483560 -0.000000 -0.000000
								CHANNELS 3 Zrotation Yrotation Xrotation
								JOINT LeftFingerBase
								{
									OFFSET 0.000000 0.000000 0.000000
									CHANNELS 3 Zrotation Yrotation Xrotation
									JOINT LeftHandIndex1
									{
										OFFSET 0.715260 -0.000000 -0.000000
										CHANNELS 3 Zrotation Yrotation Xrotation
										End Site
										{
											OFFSET 0.000000 0.000000 0.000000
										}
									}
								}
								JOINT LThumb
								{
									OFFSET 0.000000 0.000000 0.000000
									CHANNELS 3 Zrotation Yrotation Xrotation
									End Site
									{
										OFFSET 0.000000 0.000000 0.000000
									}
								}
							}
						}
					}
				}
				JOINT RightShoulder
				{
					OFFSET 0.000000 0.000000 0.000000
					CHANNELS 3 Zrotation Yrotation Xrotation
					JOINT RightArm
					{
						OFFSET -3.136600 1.374050 -0.404650
						CHANNELS 3 Zrotation Yrotation Xrotation
						JOINT RightForeArm
						{
							OFFSET -5.241900 -0.000000 -0.000000
							CHANNELS 3 Zrotation Yrotation Xrotation
							JOINT RightHand
							{
								OFFSET -3.444170 -0.000000 -0.000000
								CHANNELS 3 Zrotation Yrotation Xrotation
								JOINT RightFingerBase
								{
									OFFSET 0.000000 0.000000 0.000000
									CHANNELS 3 Zrotation Yrotation Xrotation
									JOINT RightHandIndex1
									{
										OFFSET -0.622530 -0.000000 -0.000000
										CHANNELS 3 Zrotation Yrotation Xrotation
										End Site
										{
											OFFSET 0.000000 0.000000 0.000000
										}
									}
								}
								JOINT RThumb
								{
									OFFSET 0.000000 0.000000 0.000000
									CHANNELS 3 Zrotation Yrotation Xrotation
									End Site
									{
										OFFSET 0.000000 0.000000 0.000000
									}
								}
							}
						}
					}
				}
			}
		}
	}
}
MOTION
Frames: 6
Frame Time: 0.008333
9.788272 18.094690 -1.056565 2.892820 -23.336517 -2.592398 -2.855402 3.875120 3.018540 -15.109620 -3.925292 -13.406971 -1.296070 4.837145 14.984967 -4.740532 19.878100 2.303262 0.258700 -3.272600 -9.038700 -0.352477 -4.700912 2.474913 19.184267 -2.039276 -1.712950 0.230772 -4.244786 17.126575 2.075507 -14.240143 -15.266036 -0.005900 -0.495400 1.361300 0.863731 1.255344 3.841303 1.579873 1.766262 0.101492 1.030149 0.909227 0.729252 -2.137213 6.838278 -8.025522 -3.049503 9.014770 -0.288241 -0.892600 4.306600 2.153900 -3.898403 -1.990507 0.454821 -88.969323 0.531617 13.391683 19.217926 -30.891588 -5.398760 -0.155542 1.214904 -26.690980 26.276330 18.105320 8.016700 -7.125000 0.000000 0.000000 -1.940600 48.605100 -0.172600 6.654047 1.895363 -0.002512 70.233249 2.764500 37.285749 -18.085775 29.934118 -4.679502 -0.137231 -0.537767 -15.831643 -24.933790 14.432183 -6.773700 7.125000 0.000000 0.000000 1.966600 -13.564400 1.451400 
9.787459 18.103942 -1.058293 3.692700 -23.391069 -2.955355 -2.906568 3.908554 3.068641 -15.875245 -3.737179 -12.936826 -1.401927 4.513308 14.187558 -4.756510 20.046560 2.324854 0.145800 -2.460600 -6.780500 -0.342190 -4.704331 2.480304 18.368754 -1.893335 -2.144165 0.136129 -4.524230 17.833586 1.984518 -13.920386 -15.562492 -0.001900 -0.277900 0.763700 0.082079 1.293947 3.840374 1.340907 1.775138 0.098701 1.144377 0.893395 0.686410 -2.065004 6.786178 -8.243128 -2.831889 8.959973 -0.004740 -0.842900 4.280400 2.263800 -3.920963 -1.983064 0.464210 -88.610499 0.347941 13.472186 19.658477 -31.370421 -5.590411 -0.130332 1.188873 -26.451399 26.262454 16.893378 7.471100 -7.125000 0.000000 0.000000 -1.752200 47.317900 -0.100200 6.668122 1.877058 -0.000416 70.135015 3.093536 37.427165 -18.591602 30.515144 -4.897952 -0.140940 -0.541613 -15.785945 -24.944568 14.909480 -6.986300 7.125000 0.000000 0.000000 1.998500 -13.041100 1.496900 
9.790916 18.103231 -1.065614 3.687867 -23.532702 -3.060035 -2.897707 3.914863 3.076497 -15.856928 -3.682648 -12.916604 -1.390889 4.549477 14.307555 -4.774001 20.038975 1.878383 0.086500 -1.896600 -5.219900 -0.351317 -4.708354 2.483884 18.391439 -1.741462 -1.914713 0.161895 -4.459793 17.661604 1.985114 -13.933107 -15.577339 -0.001500 -0.251600 0.691300 0.058899 1.327531 3.930089 1.349366 1.820477 0.151998 1.179668 0.914793 0.683857 -1.749311 6.706055 -8.563842 -3.193312 8.867525 0.284395 -0.976500 4.224200 2.428300 -3.949231 -1.953866 0.469098 -88.340524 0.013471 14.072504 20.097131 -31.852081 -5.784127 -0.133331 1.176441 -26.723851 26.217832 16.558921 7.309500 -7.125000 0.000000 0.000000 -1.738900 46.959800 -0.084100 6.686648 1.866386 0.005457 69.756082 3.561610 37.546950 -19.091099 31.079337 -5.121628 -0.142066 -0.544951 -15.913091 -25.078875 15.363615 -7.229200 7.125000 0.000000 0.000000 1.946400 -12.526300 1.478800 
9.794678 18.107806 -1.076492 3.049716 -23.901280 -2.888802 -2.884258 3.946766 3.127455 -15.163030 -3.544545 -12.855236 -1.421456 4.469793 14.043461 -4.868805 20.255988 1.517479 0.027200 -1.064800 -2.927200 -0.365050 -4.687854 2.449628 19.075450 -1.434012 -1.818676 0.147849 -4.509463 17.829571 1.977497 -13.965651 -15.637564 -0.001800 -0.276100 0.758700 0.691096 1.392639 4.065083 1.478260 1.947041 0.170959 0.981861 0.988772 0.625488 -1.538871 6.701319 -8.704529 -3.403524 8.864724 0.459031 -1.057500 4.217500 2.520000 -3.976833 -1.930030 0.475910 -87.937732 -0.324224 14.882926 20.531939 -32.329320 -5.987418 -0.175139 1.181640 -27.156384 26.145107 17.855097 7.875800 -7.125000 0.000000 0.000000 -2.003700 48.341500 -0.165200 6.714134 1.860488 0.008814 69.351641 3.938878 37.773873 -19.758735 31.816623 -5.420480 -0.132542 -0.553406 -16.275943 -25.059101 15.331980 -7.214100 7.125000 0.000000 0.000000 1.955300 -12.552800 1.484500 
9.800676 18.108721 -1.083914 2.976811 -24.315367 -2.830312 -2.877811 3.938095 3.130737 -15.025081 -3.485398 -12.948307 -1.422480 4.490338 14.112717 -4.904550 20.269934 0.786501 0.000800 -0.186300 -0.511900 -0.372191 -4.678239 2.439286 19.131262 -1.338970 -1.890005 0.157077 -4.490108 17.753797 2.031652 -13.997883 -15.135795 0.000000 0.008800 -0.024200 0.829171 1.483539 4.021340 1.439884 2.072499 0.164089 0.850410 1.056047 0.640295 -1.025871 6.642291 -8.828076 -3.990732 8.774108 0.705900 -1.293800 4.160800 2.656700 -4.019126 -1.907261 0.485849 -87.416745 -0.664034 15.555939 21.170253 -33.009424 -6.285857 -0.232903 1.175596 -27.471556 25.566342 19.396280 8.363700 -7.125000 0.000000 0.000000 -2.827900 49.905100 -0.342200 6.730307 1.850890 0.012001 69.069313 4.345352 38.188749 -20.492972 32.614817 -5.757112 -0.118150 -0.566814 -16.593986 -25.315545 14.928693 -7.129600 7.125000 0.000000 0.000000 1.748000 -12.936000 1.313000 
9.810843 18.100587 -1.086558 3.288458 -24.475825 -3.013586 -2.884883 3.938796 3.132893 -15.330142 -3.501221 -12.853266 -1.427416 4.485747 14.160995 -4.891877 20.197769 0.228842 0.000200 0.093300 0.256500 -0.377389 -4.689269 2.447107 18.755983 -1.398614 -1.907906 0.151415 -4.494175 17.739620 2.051398 -13.909309 -14.741149 -0.000100 0.051200 -0.140700 0.621908 1.483519 3.954278 1.353923 2.057507 0.211183 0.865004 1.045464 0.742088 -0.633777 6.573100 -8.855754 -4.669516 8.670189 0.755884 -1.543400 4.095800 2.719000 -4.065479 -1.890315 0.496425 -87.052445 -1.020917 16.043440 22.062395 -33.941637 -6.709652 -0.291822 1.157985 -27.868641 24.645401 20.533204 8.515600 -7.125000 0.000000 0.000000 -3.954700 50.969000 -0.582400 6.744948 1.831591 0.013682 68.720617 4.890273 38.667649 -21.170703 33.334877 -6.077984 -0.107112 -0.578637 -16.754959 -25.841956 14.627771 -7.172300 7.125000 0.000000 0.000000 1.367800 -13.172700 1.020400 
